HIERARCHY
ROOT hip
{
  OFFSET 0 0 0
  CHANNELS 6 Xposition Yposition Zposition Zrotation Yrotation Xrotation
  JOINT abdomen
  {
    OFFSET 0 20.6881 -0.73152
    CHANNELS 3 Zrotation Xrotation Yrotation
    JOINT chest
    {
      OFFSET 0 11.7043 -0.48768
      CHANNELS 3 Zrotation Xrotation Yrotation
      JOINT neck
      {
        OFFSET 0 22.1894 -2.19456
        CHANNELS 3 Zrotation Xrotation Yrotation
        JOINT head
        {
          OFFSET -0.24384 7.07133 1.2192
          CHANNELS 3 Zrotation Xrotation Yrotation
          JOINT leftEye
          {
            OFFSET 4.14528 8.04674 8.04672
            CHANNELS 3 Zrotation Xrotation Yrotation
            End Site
            {
              OFFSET 1 0 0
            }
          }
          JOINT rightEye
          {
            OFFSET -3.6576 8.04674 8.04672
            CHANNELS 3 Zrotation Xrotation Yrotation
            End Site
            {
              OFFSET 1 0 0
            }
          }
        }
      }
      JOINT rCollar
      {
        OFFSET -2.68224 19.2634 -4.8768
        CHANNELS 3 Zrotation Xrotation Yrotation
        JOINT rShldr
        {
          OFFSET -8.77824 -1.95073 1.46304
          CHANNELS 3 Zrotation Xrotation Yrotation
          JOINT rForeArm
          {
            OFFSET -28.1742 -1.7115 0.48768
            CHANNELS 3 Zrotation Xrotation Yrotation
            JOINT rHand
            {
              OFFSET -22.5879 0.773209 7.07136
              CHANNELS 3 Zrotation Xrotation Yrotation
              JOINT rThumb1
              {
                OFFSET -1.2192 -0.487915 3.41376
                CHANNELS 3 Zrotation Xrotation Yrotation
                JOINT rThumb2
                {
                  OFFSET -3.37035 -0.52449 3.41376
                  CHANNELS 3 Zrotation Xrotation Yrotation
                  End Site
                  {
                    OFFSET -1.78271 -1.18214 1.43049
                  }
                }
              }
              JOINT rIndex1
              {
                OFFSET -7.75947 0.938293 5.60832
                CHANNELS 3 Zrotation Xrotation Yrotation
                JOINT rIndex2
                {
                  OFFSET -2.54057 -0.884171 1.56538
                  CHANNELS 3 Zrotation Xrotation Yrotation
                  End Site
                  {
                    OFFSET -1.62519 -0.234802 1.16502
                  }
                }
              }
              JOINT rMid1
              {
                OFFSET -8.24714 1.18213 3.41376
                CHANNELS 3 Zrotation Xrotation Yrotation
                JOINT rMid2
                {
                  OFFSET -3.10165 -0.590103 1.0647
                  CHANNELS 3 Zrotation Xrotation Yrotation
                  End Site
                  {
                    OFFSET -2.48547 -0.328903 0.83742
                  }
                }
              }
              JOINT rRing1
              {
                OFFSET -8.82822 0.546677 1.51678
                CHANNELS 3 Zrotation Xrotation Yrotation
                JOINT rRing2
                {
                  OFFSET -2.60934 -0.819778 -0.0198488
                  CHANNELS 3 Zrotation Xrotation Yrotation
                  End Site
                  {
                    OFFSET -2.33842 -0.294052 0.168128
                  }
                }
              }
              JOINT rPinky1
              {
                OFFSET -8.27202 -0.0477905 -0.4584
                CHANNELS 3 Zrotation Xrotation Yrotation
                JOINT rPinky2
                {
                  OFFSET -1.82734 -0.647385 -0.700984
                  CHANNELS 3 Zrotation Xrotation Yrotation
                  End Site
                  {
                    OFFSET -1.69225 -0.51767 -0.607171
                  }
                }
              }
            }
          }
        }
      }
      JOINT lCollar
      {
        OFFSET 2.68224 19.2634 -4.8768
        CHANNELS 3 Zrotation Xrotation Yrotation
        JOINT lShldr
        {
          OFFSET 8.77824 -1.95073 1.46304
          CHANNELS 3 Zrotation Xrotation Yrotation
          JOINT lForeArm
          {
            OFFSET 28.1742 -1.7115 0.48768
            CHANNELS 3 Zrotation Xrotation Yrotation
            JOINT lHand
            {
              OFFSET 22.5879 0.773209 7.07136
              CHANNELS 3 Zrotation Xrotation Yrotation
              JOINT lThumb1
              {
                OFFSET 1.2192 -0.487915 3.41376
                CHANNELS 3 Zrotation Xrotation Yrotation
                JOINT lThumb2
                {
                  OFFSET 3.37035 -0.52449 3.41376
                  CHANNELS 3 Zrotation Xrotation Yrotation
                  End Site
                  {
                    OFFSET 1.78271 -1.18214 1.43049
                  }
                }
              }
              JOINT lIndex1
              {
                OFFSET 7.75947 0.938293 5.60832
                CHANNELS 3 Zrotation Xrotation Yrotation
                JOINT lIndex2
                {
                  OFFSET 2.54057 -0.884171 1.56538
                  CHANNELS 3 Zrotation Xrotation Yrotation
                  End Site
                  {
                    OFFSET 1.62519 -0.234802 1.16502
                  }
                }
              }
              JOINT lMid1
              {
                OFFSET 8.24714 1.18213 3.41376
                CHANNELS 3 Zrotation Xrotation Yrotation
                JOINT lMid2
                {
                  OFFSET 3.10165 -0.590103 1.0647
                  CHANNELS 3 Zrotation Xrotation Yrotation
                  End Site
                  {
                    OFFSET 2.48547 -0.328903 0.83742
                  }
                }
              }
              JOINT lRing1
              {
                OFFSET 8.82822 0.546677 1.51678
                CHANNELS 3 Zrotation Xrotation Yrotation
                JOINT lRing2
                {
                  OFFSET 2.60934 -0.819778 -0.0198488
                  CHANNELS 3 Zrotation Xrotation Yrotation
                  End Site
                  {
                    OFFSET 2.33842 -0.294052 0.168128
                  }
                }
              }
              JOINT lPinky1
              {
                OFFSET 8.27202 -0.0477905 -0.4584
                CHANNELS 3 Zrotation Xrotation Yrotation
                JOINT lPinky2
                {
                  OFFSET 1.82734 -0.647385 -0.700984
                  CHANNELS 3 Zrotation Xrotation Yrotation
                  End Site
                  {
                    OFFSET 1.69225 -0.51767 -0.607171
                  }
                }
              }
            }
          }
        }
      }
    }
  }
  JOINT rButtock
  {
    OFFSET -8.77824 4.35084 1.2192
    CHANNELS 3 Zrotation Xrotation Yrotation
    JOINT rThigh
    {
      OFFSET 0 -1.70687 -2.19456
      CHANNELS 3 Zrotation Xrotation Yrotation
      JOINT rShin
      {
        OFFSET 0 -36.8199 0.73152
        CHANNELS 3 Zrotation Xrotation Yrotation
        JOINT rFoot
        {
          OFFSET 0.73152 -45.1104 -5.12064
          CHANNELS 3 Zrotation Xrotation Yrotation
          End Site
          {
            OFFSET -1.1221 -3.69964 12.103
          }
        }
      }
    }
  }
  JOINT lButtock
  {
    OFFSET 8.77824 4.35084 1.2192
    CHANNELS 3 Zrotation Xrotation Yrotation
    JOINT lThigh
    {
      OFFSET 0 -1.70687 -2.19456
      CHANNELS 3 Zrotation Xrotation Yrotation
      JOINT lShin
      {
        OFFSET 0 -36.8199 0.73152
        CHANNELS 3 Zrotation Xrotation Yrotation
        JOINT lFoot
        {
          OFFSET -0.73152 -45.1104 -5.12064
          CHANNELS 3 Zrotation Xrotation Yrotation
          End Site
          {
            OFFSET 1.1221 -3.69964 12.103
          }
        }
      }
    }
  }
}
MOTION
Frames:	6
Frame Time:	0.00833333
291.551 82.3165 -156.713 0.0 0.0 0.0 -2.59964 0.000365996 -0.0702749 -0.716705 0.01229 -0.12403 4.82361e-14 -2.38542e-15 -9.93925e-17 1.4347e-13 -6.36111e-15 -2.9973e-16 -0.0 0.0 0.0 -0.0 0.0 0.0 2.43017e-14 1.454e-16 9.93923e-17 5.06568e-13 3.31101e-15 1.39149e-15 8.66443e-12 -2.48819e-12 -9.54166e-14 9.9163e-11 3.15402e-12 -1.43125e-13 2.33886e-10 1.43984e-12 -5.24792e-13 4.03901e-10 2.48401e-12 -9.27132e-13 2.33892e-10 1.44437e-12 -5.34333e-13 7.73091 5.47488 0.417314 2.33887e-10 1.44019e-12 -5.24792e-13 2.90554 0.965183 0.102902 2.33895e-10 1.44039e-12 -5.24792e-13 10.2786 0.731801 0.0259123 2.33885e-10 1.4392e-12 -5.1525e-13 2.22167 -0.733487 -0.20892 2.43027e-14 1.47147e-16 -1.98785e-16 5.02362e-13 3.10601e-15 -7.95139e-16 8.67278e-12 2.69512e-12 -1.24042e-13 9.91503e-11 -2.036e-12 -9.54166e-14 2.33884e-10 1.42577e-12 -5.24792e-13 4.0391e-10 2.45857e-12 -9.10434e-13 2.33877e-10 1.42886e-12 -5.1843e-13 -7.73091 5.47488 -0.417314 2.33883e-10 1.42618e-12 -5.24792e-13 -2.90554 0.965183 -0.102902 2.33873e-10 1.42678e-12 -5.25587e-13 -10.2786 0.731801 -0.0259123 2.33888e-10 1.42688e-12 -5.31153e-13 -2.22167 -0.733487 0.20892 -2.03217e-16 0.0 -3.88251e-19 -1.50082 -1.93106 0.00776818 -0.00872191 -2.07863 -0.0717176 -0.472698 3.99921 0.134516 2.03217e-16 0.0 3.88251e-19 -2.45043 -8.43847 0.261209 -0.00685692 9.70809 -0.175598 0.523206 -1.28002 -0.0328329
284.75 81.7643 -159.19 -3.0381 -55.1313 -3.4281 -1.34723 2.40395 -0.278883 -0.882741 0.832759 -0.204802 1.01797 2.35601 0.0245293 -0.695758 -3.17345 -0.198706 -0.0 0.0 0.0 -0.0 0.0 0.0 -2.45731e-14 4.92067e-15 3.86135e-13 21.8714 1.50985 0.413439 -4.14841 -1.87093 6.49452 0.00312758 1.24067 0.174217 -1.60389e-09 -3.29555e-10 6.70662e-10 -2.77126e-09 -5.71086e-10 1.17187e-09 -1.60388e-09 -3.29552e-10 6.7065e-10 7.73091 5.47488 0.417314 -1.60389e-09 -3.29556e-10 6.70663e-10 2.90554 0.965183 0.102902 -1.60389e-09 -3.29556e-10 6.70662e-10 10.2786 0.731801 0.0259123 -1.60389e-09 -3.29556e-10 6.70668e-10 2.22167 -0.733487 -0.20892 -2.45881e-14 4.92071e-15 3.85804e-13 -21.906 3.38309 -0.6074 3.48007 -1.45786 -5.56241 -0.0604759 -5.46177 0.755078 1.42567e-10 1.68796e-09 2.02347e-09 2.11328e-10 2.90191e-09 3.50089e-09 1.42561e-10 1.68796e-09 2.02348e-09 -7.73091 5.47488 -0.417314 1.42567e-10 1.68796e-09 2.02347e-09 -2.90554 0.965183 -0.102902 1.42557e-10 1.68796e-09 2.02347e-09 -10.2786 0.731801 -0.0259123 1.42571e-10 1.68796e-09 2.02347e-09 -2.22167 -0.733487 0.20892 -2.03217e-16 0.0 -3.88251e-19 -0.367888 -4.13011 -0.200547 0.0250939 7.79972 0.113806 -1.00881 -2.91703 -3.43903 2.03217e-16 0.0 3.88251e-19 0.37225 -8.70687 3.38828 -0.00382498 16.2238 -0.26006 0.747911 -4.77834 1.63399
284.758 81.7648 -159.126 -2.9238 -55.1408 -3.5166 -0.00224184 4.94685 -0.49761 -1.05777 1.69907 -0.289205 2.09415 4.84882 0.0506877 -1.46094 -6.53261 -0.411353 -0.0 0.0 0.0 -0.0 0.0 0.0 -7.80073e-14 1.04516e-14 8.08454e-13 44.9667 3.11116 0.853454 -8.07624 -3.76887 13.3828 -0.00178038 2.55406 0.358923 -3.59502e-09 -6.83686e-10 1.37902e-09 -6.21143e-09 -1.18476e-09 2.40995e-09 -3.59501e-09 -6.83685e-10 1.37901e-09 7.73091 5.47488 0.417314 -3.59502e-09 -6.83689e-10 1.37902e-09 2.90554 0.965183 0.102902 -3.59502e-09 -6.8369e-10 1.37902e-09 10.2786 0.731801 0.0259123 -3.59502e-09 -6.83688e-10 1.37902e-09 2.22167 -0.733487 -0.20892 -7.80376e-14 1.04499e-14 8.08085e-13 -44.9827 6.98465 -1.26071 6.86611 -2.96141 -11.4758 0.0350382 -11.2506 1.579 4.68522e-11 3.52774e-09 4.23347e-09 8.00726e-12 6.06478e-09 7.32444e-09 4.68472e-11 3.52774e-09 4.23348e-09 -7.73091 5.47488 -0.417314 4.68537e-11 3.52774e-09 4.23347e-09 -2.90554 0.965183 -0.102902 4.68426e-11 3.52774e-09 4.23347e-09 -10.2786 0.731801 -0.0259123 4.68549e-11 3.52774e-09 4.23347e-09 -2.22167 -0.733487 0.20892 -2.03217e-16 0.0 -3.88251e-19 0.815058 -6.45322 -0.424637 -0.0115867 18.2406 0.323908 -2.52221 -10.1562 -7.31968 2.03217e-16 0.0 3.88251e-19 3.39556 -8.96735 6.70468 0.0225677 23.1233 -0.359709 1.20761 -8.4601 3.41554
284.765 81.7634 -159.071 -2.855 -55.1788 -3.5464 1.21048 7.21068 -0.700906 -1.20786 2.47366 -0.366623 3.04781 7.06801 0.0740888 -2.15409 -9.51989 -0.603517 -0.0 0.0 0.0 -0.0 0.0 0.0 -1.22323e-13 1.44712e-14 1.15821e-12 65.5488 4.5286 1.24377 -11.1955 -5.32491 19.561 -0.0132923 3.72187 0.523632 -5.27945e-09 -9.91545e-10 2.01304e-09 -9.12159e-09 -1.71823e-09 3.51746e-09 -5.27944e-09 -9.91546e-10 2.01302e-09 7.73091 5.47488 0.417314 -5.27945e-09 -9.9155e-10 2.01304e-09 2.90554 0.965183 0.102902 -5.27945e-09 -9.9155e-10 2.01303e-09 10.2786 0.731801 0.0259123 -5.27945e-09 -9.91547e-10 2.01304e-09 2.22167 -0.733487 -0.20892 -1.2237e-13 1.44678e-14 1.15781e-12 -65.5001 10.1447 -1.84792 9.60241 -4.20898 -16.7283 0.265851 -16.3737 2.35032 -4.00656e-11 5.06103e-09 6.07147e-09 -1.73835e-10 8.70081e-09 1.05045e-08 -4.00696e-11 5.06103e-09 6.07147e-09 -7.73091 5.47488 -0.417314 -4.0063e-11 5.06102e-09 6.07146e-09 -2.90554 0.965183 -0.102902 -4.00745e-11 5.06102e-09 6.07146e-09 -10.2786 0.731801 -0.0259123 -4.00634e-11 5.06102e-09 6.07146e-09 -2.22167 -0.733487 0.20892 -2.03217e-16 0.0 -3.88251e-19 1.84952 -8.52779 -0.622489 -0.117447 27.5554 0.543224 -4.73779 -16.4725 -11.0301 2.03217e-16 0.0 3.88251e-19 6.10498 -9.15922 9.65506 0.0691943 29.2549 -0.461855 1.81851 -11.7362 5.05655
284.77 81.7657 -159.019 -2.8504 -55.1886 -3.5474 2.05629 8.77723 -0.861271 -1.30035 3.01897 -0.426342 3.69952 8.60319 0.090114 -2.61927 -11.578 -0.737336 -0.0 0.0 0.0 -0.0 0.0 0.0 -1.43842e-13 1.47128e-14 1.32654e-12 79.8948 5.48726 1.50646 -13.1657 -6.30059 23.89 -0.0251878 4.52583 0.637403 -6.19713e-09 -1.18372e-09 2.46119e-09 -1.07068e-08 -2.05118e-09 4.29854e-09 -6.19712e-09 -1.18372e-09 2.46117e-09 7.73091 5.47488 0.417314 -6.19713e-09 -1.18373e-09 2.46119e-09 2.90554 0.965183 0.102902 -6.19713e-09 -1.18373e-09 2.46119e-09 10.2786 0.731801 0.0259123 -6.19713e-09 -1.18373e-09 2.46119e-09 2.22167 -0.733487 -0.20892 -1.43908e-13 1.47079e-14 1.32614e-12 -79.7794 12.2055 -2.24407 11.3129 -4.97833 -20.2877 0.508655 -19.844 2.90727 -1.0499e-10 5.82806e-09 6.97945e-09 -3.01981e-10 1.00198e-08 1.20757e-08 -1.04993e-10 5.82806e-09 6.97945e-09 -7.73091 5.47488 -0.417314 -1.04987e-10 5.82805e-09 6.97943e-09 -2.90554 0.965183 -0.102902 -1.04998e-10 5.82806e-09 6.97944e-09 -10.2786 0.731801 -0.0259123 -1.04988e-10 5.82805e-09 6.97944e-09 -2.22167 -0.733487 0.20892 -2.03217e-16 0.0 -3.88251e-19 2.54792 -9.98144 -0.749971 -0.242905 34.0561 0.728201 -6.81288 -20.7559 -13.8495 2.03217e-16 0.0 3.88251e-19 7.96583 -9.24265 11.6812 0.115883 33.4672 -0.542621 2.37073 -14.0337 6.26607
284.789 81.7657 -158.963 -2.815 -55.186 -3.5579 2.37314 9.36801 -0.963281 -1.31091 3.24514 -0.462577 3.92732 9.17773 0.0975053 -2.74268 -12.3331 -0.780031 -0.0 0.0 0.0 -0.0 0.0 0.0 -1.298e-13 1.01871e-14 1.20763e-12 85.5264 5.80798 1.5915 -13.8925 -6.6526 25.5877 -0.0304284 4.81806 0.678855 -5.9066e-09 -1.18228e-09 2.61519e-09 -1.02041e-08 -2.04854e-09 4.563e-09 -5.90658e-09 -1.18228e-09 2.61518e-09 7.73091 5.47488 0.417314 -5.90659e-09 -1.18229e-09 2.61519e-09 2.90554 0.965183 0.102902 -5.9066e-09 -1.18229e-09 2.61519e-09 10.2786 0.731801 0.0259123 -5.9066e-09 -1.18228e-09 2.61519e-09 2.22167 -0.733487 -0.20892 -1.29898e-13 1.01804e-14 1.20728e-12 -85.4012 12.7201 -2.35677 11.833 -5.184 -21.4418 0.610989 -21.0028 3.10215 -1.37345e-10 5.38325e-09 6.40287e-09 -3.4894e-10 9.25578e-09 1.10788e-08 -1.37348e-10 5.38325e-09 6.40288e-09 -7.73091 5.47488 -0.417314 -1.37343e-10 5.38324e-09 6.40286e-09 -2.90554 0.965183 -0.102902 -1.37351e-10 5.38324e-09 6.40287e-09 -10.2786 0.731801 -0.0259123 -1.37342e-10 5.38324e-09 6.40286e-09 -2.22167 -0.733487 0.20892 -2.03217e-16 0.0 -3.88251e-19 2.79169 -10.566 -0.77678 -0.306694 36.618 0.812105 -7.77111 -22.4064 -15.0494 2.03217e-16 0.0 3.88251e-19 8.61428 -9.20415 12.413 0.134887 34.9929 -0.574908 2.63877 -14.9877 6.81349
